<svg xmlns="http://www.w3.org/2000/svg" xmlns:xlink="http://www.w3.org/1999/xlink" version="1.1" x="0px" y="0px" viewBox="0 0 100 100" enable-background="new 0 0 100 100" xml:space="preserve"><path d="M43.6,23.3c0.8,0.7,0.9,1.9,0.1,2.6l-6.2,6.2c-0.3,0.3-0.2,0.7,0.1,0.9l0.2,0.1c1.3,0.7,1.4,1.8,0.6,2.7l-2.6,2.6  c-0.8,0.8-1.9,0.8-2.7-0.6L33,37.6c-0.2-0.3-0.7-0.4-0.9-0.1l-6.2,6.2c-0.7,0.7-1.9,0.7-2.6-0.1c-0.6-0.7-0.5-1.8,0.2-2.4l6.9-6.9  c0.2-0.2,0.2-0.5,0.1-0.7l-0.9-1.5c-0.3-0.6-0.2-1.3,0.2-1.7l0.8-0.8c0.4-0.4,1.1-0.5,1.7-0.2l1.5,0.9c0.2,0.2,0.5,0.1,0.7-0.1  l6.9-6.9C41.9,22.8,42.9,22.7,43.6,23.3z M78.3,64.3 M89.4,87.2c0-6.7-3.1-12.8-3.2-13c-0.6-1.1-1.9-1.6-3.1-1  c-1.1,0.6-1.6,1.9-1,3.1c0,0,2,3.9,2.5,8.6c-1.9-0.2-3.6-0.7-5-1.1c0.2-0.2,0.5-0.4,0.7-0.7c0.9-0.9,0.9-2.3,0-3.2  c-0.9-0.9-2.3-0.9-3.2,0c-1.8,1.8-2.8,2.4-3,2.4c-0.8,0.3-1.3,1.1-1.4,2c0,0.9,0.5,1.7,1.3,2.1c0.3,0.1,6.3,3.2,13,3.2  c0.6,0,1.2-0.2,1.6-0.7C89.2,88.3,89.4,87.8,89.4,87.2z M77.5,60.2c0.8-1.5,1.9-3.7-0.2-5.8c-1-1-2.7-1-3.7,0c-0.8,0.8-1,2-0.5,2.9  c-0.1,0.1-0.1,0.3-0.2,0.4c-0.7,1.3-0.2,2.9,1.1,3.5c1,0.5,2.3,0.3,3.1-0.5C77.2,60.7,77.4,60.5,77.5,60.2z M72.2,68  c1-1.1,0.8-2.8-0.3-3.7c-1.1-1-2.7-0.8-3.7,0.3c-0.5,0.6-0.6,0.6-0.9,1c-0.2,0.1-0.4,0.3-0.7,0.6c-4.7,4.7-8,6.6-9.2,6.9  c-1-0.5-2.2-0.4-3.1,0.5c-1,1-1,2.7,0,3.7c3.6,3.6,10.6-2,16-7.4c0.3-0.3,0.5-0.5,0.6-0.6c0.1-0.1,0.2-0.2,0.3-0.3  C71.5,68.8,71.7,68.6,72.2,68z M82.5,68.2c0.5-2-0.3-3.1-0.8-3.6c-1-1-2.7-1-3.7,0c-0.7,0.7-0.9,1.8-0.6,2.7c-0.2,1.3,0.7,2.6,2,2.9  c0.9,0.2,1.8-0.1,2.5-0.7C82.2,69.1,82.4,68.7,82.5,68.2z M76.8,76.8L76.8,76.8C76.8,76.7,76.9,76.7,76.8,76.8L76.8,76.8  c1.1-1.1,1.1-2.8,0-3.8l0,0c-0.9-0.9-2.5-1.1-3.7,0l0,0c0,0,0,0,0,0c-0.1,0.1-0.3,0.3-0.4,0.4c-0.1,0-0.1,0.1-0.1,0.1  c-2.5,2.4-4.5,3.5-5.3,3.8c-1.2-0.4-2.6,0.1-3.2,1.4c-0.5,1-0.2,2.2,0.6,3c3.2,3.2,9.7-2.6,11.8-4.5C76.5,77.1,76.6,77,76.8,76.8  C76.7,76.8,76.8,76.8,76.8,76.8z M64.1,40.8c-1-1-2.7-1-3.7,0c-0.8,0.8-1,2.1-0.5,3.1C59.6,45,57.7,48.3,53,53  c-4.7,4.7-8,6.6-9.2,6.9c-1-0.5-2.2-0.4-3.1,0.5c-1,1-1,2.7,0,3.7c3.6,3.6,10.6-2,16-7.4S67.7,44.3,64.1,40.8z M70.8,47.5  c-1-1-2.7-1-3.7,0c-0.8,0.8-1,2.1-0.5,3.1c-0.3,1.1-2.2,4.5-6.9,9.2c-4.7,4.7-8,6.6-9.2,6.9c-1-0.5-2.2-0.4-3.1,0.5  c-1,1-1,2.7,0,3.7c3.6,3.6,10.6-2,16-7.4S74.4,51,70.8,47.5z M56.1,19.9l1.5,11.1c0,0,0,0,0,0c0.1,0.4,0.2,0.9,0.5,1.5  c0.3,0.6,0.6,1.4,0.8,2.3c1.1,4.9-6.4,13-8.8,15.3c-2.3,2.3-10.4,9.9-15.3,8.8c-0.9-0.2-1.7-0.6-2.3-0.8c-0.6-0.3-1-0.5-1.5-0.5  c0,0,0,0,0,0l-11.1-1.5c-4,0.9-6.3-0.2-7.6-1.5c-2.6-2.6-2.3-7,1-13c2.6-4.8,7.1-10.4,12.5-15.8s11-9.9,15.8-12.5  c6-3.3,10.3-3.6,13-1C55.9,13.6,56.9,15.9,56.1,19.9z M16,50.9c0.2,0.2,1,0.4,2.5,0.1c0.1-0.1,0.3-0.1,0.5-0.2  c3.8-1,10.5-4.5,17.7-11.2c0.1-0.1,0.1-0.1,0.2-0.2c0.2-0.2,0.3-0.3,0.5-0.5c0.3-0.3,0.5-0.5,0.8-0.8c0,0,0,0,0,0  c0.3-0.3,0.5-0.5,0.8-0.8c0.2-0.2,0.3-0.3,0.5-0.5c0.1-0.1,0.1-0.1,0.2-0.2c6.8-7.2,10.3-13.9,11.2-17.7c0-0.2,0.1-0.3,0.2-0.5  c0.3-1.4,0.1-2.2-0.1-2.5c-1.1-1.1-9.3,1.4-21.4,13.5S14.9,49.8,16,50.9z M52.4,31.8L52,29.1c-2.2,3.7-5.2,7.5-8.7,11.1c0,0,0,0,0,0  c-0.5,0.5-1,1-1.5,1.5l0,0l0,0l0,0c-0.5,0.5-1,1-1.5,1.5c0,0,0,0,0,0c-3.7,3.5-7.5,6.4-11.1,8.7l2.6,0.4c1.2,0.2,2.2,0.6,3,0.9  c0.5,0.2,0.9,0.4,1.3,0.5c1.1,0,5.2-2.1,10.5-7.3s7.4-9.4,7.3-10.5c-0.1-0.4-0.3-0.8-0.5-1.3C53,34,52.5,33,52.4,31.8z"></path></svg>